<svg width="35" height="34" viewBox="0 0 35 34" fill="none" xmlns="http://www.w3.org/2000/svg">
<path d="M23.8636 0.636353C23.8636 0.636353 22.7637 0.771262 22.2727 2.45453L20.6818 9.72726L27.0455 15.1818H31.8182C35 15.1818 35 11.5454 35 11.5454L30.2273 6.0909C28.6364 4.27272 27.0455 4.27272 25.4545 4.27272V2.45453C25.4545 2.45453 25.4545 0.636353 23.8636 0.636353ZM7.95455 4.27272C7.95455 4.27272 6.83009 4.24763 5.65505 4.9189C4.48 5.59017 3.18182 7.3029 3.18182 9.72726V13.2356C3.18055 13.2785 3.18055 13.3211 3.18182 13.3636V15.1818V17C3.18182 20.6364 3.18182 22.4545 1.59091 22.4545C1.59091 22.4545 0 22.4545 0 24.2727V31.5454C0 31.5454 0 33.3636 1.59091 33.3636C3.18182 33.3636 3.18182 31.5454 3.18182 31.5454V26.0909C4.30723 26.0909 5.37918 25.5924 6.36364 25.0044V31.5454C6.36364 31.5454 6.36364 33.3636 7.95455 33.3636C9.54545 33.3636 9.54545 31.5454 9.54545 31.5454V22.4545H19.0909L21.204 29.6989C22.2727 33.3633 23.8636 33.3636 23.8636 33.3636H25.4545C25.4545 33.3636 27.0455 33.3636 27.0455 31.5454C27.0455 29.7273 25.4545 29.7273 25.4545 29.7273V20.6364C25.4545 17.3978 23.443 16.0724 22.2727 15.1818L17.4936 11.5454H6.36364V9.72726C6.36364 8.51526 6.65605 8.40944 7.07223 8.17199C7.48809 7.93417 7.95455 7.90908 7.95455 7.90908C10.1061 7.94399 10.1061 4.23781 7.95455 4.27272Z" fill="#565656"/>
</svg>
